REM DIRINDEX 1\2,1\3,1\4,1\5\6,1\5\7,1\8
REM DIRNAME cjc115,folder01,folder02,folder03,folder04,folder05,folder06,folder07
TITLE ""
FILE "120 【120】Unit7 (1357 subtract_1368 scarce).mp3" MP3
  TRACK 01 AUDIO
    TITLE "0:"
    INDEX 01 00:00:00
  TRACK 02 AUDIO
    TITLE "2:cjc115_4686"
    INDEX 01 00:00:07
  TRACK 03 AUDIO
    TITLE "0:"
    INDEX 01 00:01:34
  TRACK 04 AUDIO
    TITLE "3:cjc115_4687"
    INDEX 01 00:01:44
  TRACK 05 AUDIO
    TITLE "0:"
    INDEX 01 00:03:70
  TRACK 06 AUDIO
    TITLE "4:cjc115_4688"
    INDEX 01 00:04:01
  TRACK 07 AUDIO
    TITLE "0:"
    INDEX 01 00:07:58
  TRACK 08 AUDIO
    TITLE "2:cjc115_4689"
    INDEX 01 00:08:72
  TRACK 09 AUDIO
    TITLE "0:"
    INDEX 01 00:10:18
  TRACK 10 AUDIO
    TITLE "3:cjc115_4690"
    INDEX 01 00:10:27
  TRACK 11 AUDIO
    TITLE "0:"
    INDEX 01 00:11:52
  TRACK 12 AUDIO
    TITLE "4:cjc115_4691"
    INDEX 01 00:11:60
  TRACK 13 AUDIO
    TITLE "0:"
    INDEX 01 00:15:52
  TRACK 14 AUDIO
    TITLE "2:cjc115_4692"
    INDEX 01 00:16:59
  TRACK 15 AUDIO
    TITLE "0:"
    INDEX 01 00:18:13
  TRACK 16 AUDIO
    TITLE "3:cjc115_4693"
    INDEX 01 00:18:23
  TRACK 17 AUDIO
    TITLE "0:"
    INDEX 01 00:19:32
  TRACK 18 AUDIO
    TITLE "4:cjc115_4694"
    INDEX 01 00:19:34
  TRACK 19 AUDIO
    TITLE "0:"
    INDEX 01 00:23:34
  TRACK 20 AUDIO
    TITLE "2:cjc115_4695"
    INDEX 01 00:24:45
  TRACK 21 AUDIO
    TITLE "0:"
    INDEX 01 00:25:64
  TRACK 22 AUDIO
    TITLE "3:cjc115_4696"
    INDEX 01 00:25:74
  TRACK 23 AUDIO
    TITLE "0:"
    INDEX 01 00:27:14
  TRACK 24 AUDIO
    TITLE "4:cjc115_4697"
    INDEX 01 00:27:16
  TRACK 25 AUDIO
    TITLE "0:"
    INDEX 01 00:32:29
  TRACK 26 AUDIO
    TITLE "2:cjc115_4698"
    INDEX 01 00:33:36
  TRACK 27 AUDIO
    TITLE "0:"
    INDEX 01 00:35:02
  TRACK 28 AUDIO
    TITLE "3:cjc115_4699"
    INDEX 01 00:35:08
  TRACK 29 AUDIO
    TITLE "0:"
    INDEX 01 00:38:37
  TRACK 30 AUDIO
    TITLE "4:cjc115_4700"
    INDEX 01 00:38:47
  TRACK 31 AUDIO
    TITLE "0:"
    INDEX 01 00:42:61
  TRACK 32 AUDIO
    TITLE "2:cjc115_4701"
    INDEX 01 00:43:72
  TRACK 33 AUDIO
    TITLE "0:"
    INDEX 01 00:45:10
  TRACK 34 AUDIO
    TITLE "3:cjc115_4702"
    INDEX 01 00:45:18
  TRACK 35 AUDIO
    TITLE "0:"
    INDEX 01 00:47:23
  TRACK 36 AUDIO
    TITLE "4:cjc115_4703"
    INDEX 01 00:47:28
  TRACK 37 AUDIO
    TITLE "0:"
    INDEX 01 00:50:70
  TRACK 38 AUDIO
    TITLE "2:cjc115_4704"
    INDEX 01 00:52:06
  TRACK 39 AUDIO
    TITLE "0:"
    INDEX 01 00:53:11
  TRACK 40 AUDIO
    TITLE "3:cjc115_4705"
    INDEX 01 00:53:19
  TRACK 41 AUDIO
    TITLE "0:"
    INDEX 01 00:55:10
  TRACK 42 AUDIO
    TITLE "4:cjc115_4706"
    INDEX 01 00:55:28
  TRACK 43 AUDIO
    TITLE "0:"
    INDEX 01 00:58:05
  TRACK 44 AUDIO
    TITLE "2:cjc115_4707"
    INDEX 01 00:59:12
  TRACK 45 AUDIO
    TITLE "0:"
    INDEX 01 01:00:29
  TRACK 46 AUDIO
    TITLE "3:cjc115_4708"
    INDEX 01 01:00:35
  TRACK 47 AUDIO
    TITLE "0:"
    INDEX 01 01:02:40
  TRACK 48 AUDIO
    TITLE "4:cjc115_4709"
    INDEX 01 01:02:50
  TRACK 49 AUDIO
    TITLE "0:"
    INDEX 01 01:06:42
  TRACK 50 AUDIO
    TITLE "2:cjc115_4710"
    INDEX 01 01:07:49
  TRACK 51 AUDIO
    TITLE "0:"
    INDEX 01 01:08:58
  TRACK 52 AUDIO
    TITLE "3:cjc115_4711"
    INDEX 01 01:08:68
  TRACK 53 AUDIO
    TITLE "0:"
    INDEX 01 01:11:17
  TRACK 54 AUDIO
    TITLE "4:cjc115_4712"
    INDEX 01 01:11:27
  TRACK 55 AUDIO
    TITLE "0:"
    INDEX 01 01:14:61
  TRACK 56 AUDIO
    TITLE "2:cjc115_4713"
    INDEX 01 01:15:72
  TRACK 57 AUDIO
    TITLE "0:"
    INDEX 01 01:17:16
  TRACK 58 AUDIO
    TITLE "3:cjc115_4714"
    INDEX 01 01:17:24
  TRACK 59 AUDIO
    TITLE "0:"
    INDEX 01 01:19:13
  TRACK 60 AUDIO
    TITLE "4:cjc115_4715"
    INDEX 01 01:19:27
  TRACK 61 AUDIO
    TITLE "0:"
    INDEX 01 01:23:46
  TRACK 62 AUDIO
    TITLE "2:cjc115_4716"
    INDEX 01 01:24:55
  TRACK 63 AUDIO
    TITLE "0:"
    INDEX 01 01:26:11
  TRACK 64 AUDIO
    TITLE "3:cjc115_4717"
    INDEX 01 01:26:17
  TRACK 65 AUDIO
    TITLE "0:"
    INDEX 01 01:27:53
  TRACK 66 AUDIO
    TITLE "4:cjc115_4718"
    INDEX 01 01:27:61
  TRACK 67 AUDIO
    TITLE "0:"
    INDEX 01 01:30:66
  TRACK 68 AUDIO
    TITLE "2:cjc115_4719"
    INDEX 01 01:31:73
  TRACK 69 AUDIO
    TITLE "0:"
    INDEX 01 01:33:25
  TRACK 70 AUDIO
    TITLE "3:cjc115_4720"
    INDEX 01 01:33:34
  TRACK 71 AUDIO
    TITLE "0:"
    INDEX 01 01:35:55
  TRACK 72 AUDIO
    TITLE "4:cjc115_4721"
    INDEX 01 01:35:65
  TRACK 73 AUDIO
    TITLE "0:"
    INDEX 01 01:40:44
